<?xml version="1.0" encoding="UTF-8" standalone="no"?>
<!-- Created with Inkscape (http://www.inkscape.org/) -->

<svg
   xmlns:dc="http://purl.org/dc/elements/1.1/"
   xmlns:cc="http://creativecommons.org/ns#"
   xmlns:rdf="http://www.w3.org/1999/02/22-rdf-syntax-ns#"
   xmlns:svg="http://www.w3.org/2000/svg"
   xmlns="http://www.w3.org/2000/svg"
   xmlns:sodipodi="http://sodipodi.sourceforge.net/DTD/sodipodi-0.dtd"
   xmlns:inkscape="http://www.inkscape.org/namespaces/inkscape"
   width="320"
   height="200"
   viewBox="0 0 84.666665 52.916668"
   version="1.1"
   id="svg8"
   inkscape:version="0.92.3 (2405546, 2018-03-11)"
   sodipodi:docname="SleepTightLogo.svg"
   inkscape:export-filename="C:\Users\colinkiama\Documents\Finished Logos\SleepTightLogo.png"
   inkscape:export-xdpi="96"
   inkscape:export-ydpi="96">
  <defs
     id="defs2" />
  <sodipodi:namedview
     id="base"
     pagecolor="#000071"
     bordercolor="#666666"
     borderopacity="1.0"
     inkscape:pageopacity="0"
     inkscape:pageshadow="2"
     inkscape:zoom="2"
     inkscape:cx="257.85275"
     inkscape:cy="109.43567"
     inkscape:document-units="px"
     inkscape:current-layer="layer1"
     showgrid="true"
     units="px"
     inkscape:showpageshadow="false"
     borderlayer="true"
     inkscape:window-width="1920"
     inkscape:window-height="1017"
     inkscape:window-x="-8"
     inkscape:window-y="-8"
     inkscape:window-maximized="1"
     showguides="true">
    <inkscape:grid
       type="xygrid"
       id="grid1112" />
  </sodipodi:namedview>
  <metadata
     id="metadata5">
    <rdf:RDF>
      <cc:Work
         rdf:about="">
        <dc:format>image/svg+xml</dc:format>
        <dc:type
           rdf:resource="http://purl.org/dc/dcmitype/StillImage" />
        <dc:title></dc:title>
      </cc:Work>
    </rdf:RDF>
  </metadata>
  <g
     inkscape:label="Layer 1"
     inkscape:groupmode="layer"
     id="layer1"
     transform="translate(0,-244.08332)">
    <path
       style="fill:none;stroke:#000000;stroke-width:0.26458332px;stroke-linecap:butt;stroke-linejoin:miter;stroke-opacity:1"
       d="m -64.604055,180.94655 c 1.811112,0.38863 0.207386,-0.64588 0.438488,-0.87698 0.0689,-0.0689 0.205172,0.0436 0.292325,0 0.06163,-0.0308 0.09744,-0.0974 0.146164,-0.14617"
       id="path1106"
       inkscape:connector-curvature="0" />
    <g
       id="g1123"
       transform="matrix(1.9716994,0,0,1.9716994,-33.906492,-255.54401)"
       style="stroke:#ffffff">
      <path
         inkscape:connector-curvature="0"
         id="path1084"
         d="m 24.28497,263.92707 c 0.063,-0.12599 0.136673,-0.24719 0.188988,-0.37798 0.0117,-0.0292 0,-0.063 0,-0.0945 0,-0.063 0,-0.12599 0,-0.18899 0,-0.40126 0.01421,-0.36377 -0.283482,-0.66146 -0.0315,-0.0315 -0.05465,-0.0746 -0.09449,-0.0945 -0.08909,-0.0446 -0.191001,-0.0575 -0.283482,-0.0945 -0.06539,-0.0262 -0.119515,-0.0829 -0.188988,-0.0945 -0.124278,-0.0207 -0.251985,0 -0.377977,0 -0.125992,0 -0.251984,0 -0.377976,0 -0.334154,0 -0.540834,-0.0382 -0.850446,0.0945 -0.230226,0.0987 -0.396682,0.30219 -0.566964,0.47248 -0.09449,0.0945 -0.197932,0.18082 -0.283483,0.28348 -0.0727,0.0872 -0.125992,0.18899 -0.188988,0.28348 -0.145114,0.21767 -0.240013,0.30615 -0.283482,0.56696 -0.01553,0.0932 0,0.18899 0,0.28349 0,0.0945 -0.01553,0.19027 0,0.28348 0.06046,0.36275 0.0797,0.21774 0.283482,0.47247 0.318131,0.39766 0.04395,0.19966 0.472471,0.56696 0.576556,0.49419 0.160291,0.10018 0.755952,0.47247 0.267102,0.16694 0.48885,0.40003 0.755952,0.56697 0.119452,0.0747 0.258525,0.11433 0.377977,0.18899 0.133551,0.0835 0.249821,0.19194 0.377976,0.28348 0.09241,0.066 0.196237,0.11628 0.283482,0.18899 0.27284,0.22736 0.286644,0.28822 0.47247,0.56696 0.108346,0.16252 0.428005,0.57809 0.47247,0.75595 0.01528,0.0611 0,0.12599 0,0.18899 0,0.063 0.02817,0.13264 0,0.18899 -0.03984,0.0797 -0.125992,0.12599 -0.188988,0.18899 -0.063,0.063 -0.117716,0.13553 -0.188988,0.18898 -0.05635,0.0423 -0.128593,0.0583 -0.188988,0.0945 -0.09738,0.0584 -0.188988,0.12599 -0.283482,0.18899 -0.09449,0.063 -0.181904,0.1382 -0.283482,0.18898 -0.08909,0.0445 -0.188988,0.063 -0.283483,0.0945 -0.679692,0.22656 0.169106,-0.0483 -0.661458,0.18899 -0.09577,0.0274 -0.184877,0.0804 -0.283482,0.0945 -0.124726,0.0178 -0.251984,0 -0.377976,0 -0.09449,0 -0.188988,0 -0.283482,0 -0.03695,0 -0.620703,0.0136 -0.661459,0 -0.04226,-0.0141 -0.063,-0.063 -0.09449,-0.0945 -0.063,-0.063 -0.125992,-0.126 -0.188988,-0.18899 -0.063,-0.063 -0.135534,-0.11772 -0.188988,-0.18899 -0.09497,-0.12663 -0.134539,-0.33635 -0.188988,-0.47247 -0.02616,-0.0654 -0.07741,-0.12066 -0.09449,-0.18899 -0.01528,-0.0611 0,-0.12599 0,-0.18899 0,-0.063 0,-0.12599 0,-0.18898 0,-0.14971 -0.02817,-0.25531 0.09449,-0.37798 0.101716,-0.10172 0.495768,-0.17119 0.566964,-0.18899"
         style="fill:none;stroke:#ffffff;stroke-width:0.26458332;stroke-linecap:round;stroke-linejoin:miter;stroke-miterlimit:4;stroke-dasharray:none;stroke-opacity:1;paint-order:normal" />
      <path
         inkscape:connector-curvature="0"
         id="path1086"
         d="m 27.59226,264.87201 c -0.06299,0.25198 -0.125992,0.50397 -0.188986,0.75595 -0.0315,0.12599 -0.07839,0.24911 -0.09449,0.37798 -0.01564,0.12502 0,0.25198 0,0.37797 0,0.15749 0,0.31498 0,0.47248 0,0.15749 0.01566,0.31576 0,0.47247 -0.01598,0.15981 -0.07852,0.31265 -0.0945,0.47247 -0.01566,0.1567 0,0.31498 0,0.47247 0,0.12599 0,0.25198 0,0.37797 0,0.12599 -0.01781,0.25325 0,0.37798 0.0393,0.27507 0.143126,0.33304 0.283482,0.56696 0.03624,0.0604 0.04469,0.13919 0.09449,0.18899 0.04981,0.0498 0.125992,0.063 0.18899,0.0945 0.063,0.0315 0.12066,0.0774 0.188989,0.0945 0.06111,0.0153 0.125992,0 0.188986,0 0.09449,0 0.18899,0 0.283483,0 0.320916,0 0.639011,0.0366 0.944941,-0.0945 0.104386,-0.0447 0.188986,-0.12599 0.283482,-0.18898 0.295804,-0.19721 0.619903,-0.38481 0.850445,-0.66146 0.100822,-0.12099 0.191945,-0.24982 0.283483,-0.37798 0.06601,-0.0924 0.116284,-0.19623 0.188989,-0.28348 0.08555,-0.10266 0.217181,-0.16745 0.283483,-0.28348 0.06443,-0.11276 0.04333,-0.25861 0.09449,-0.37798 0.04474,-0.10438 0.157789,-0.17428 0.188986,-0.28348 0.024,-0.084 0,-0.60607 0,-0.75595 0,-0.0315 0,-0.063 0,-0.0945 0,-0.0315 0.02817,-0.0804 0,-0.0945 -0.05634,-0.0282 -0.129222,0.0199 -0.188986,0 -0.04226,-0.0141 -0.05224,-0.0804 -0.09449,-0.0945 -0.05976,-0.0199 -0.125992,0 -0.18899,0 -0.063,0 -0.125992,0 -0.188989,0 -0.063,0 -0.127873,-0.0153 -0.188987,0 -0.06833,0.0171 -0.128592,0.0583 -0.188989,0.0945 -0.351308,0.21078 -0.438033,0.32632 -0.661458,0.66146 -0.063,0.0945 -0.125992,0.18899 -0.188987,0.28348 -0.063,0.0945 -0.138199,0.1819 -0.188989,0.28348 -0.04454,0.0891 -0.063,0.18899 -0.09449,0.28348 -0.0315,0.0945 -0.08041,0.18488 -0.09449,0.28349 -0.01783,0.12472 0,0.25198 0,0.37797 0,0.0945 0,0.18899 0,0.28348 0,0.0945 -0.01855,0.19083 0,0.28349 0.03358,0.16792 0.172132,0.26662 0.283479,0.37797 0.063,0.063 0.117719,0.13554 0.18899,0.18899 0.11123,0.0834 0.358126,0.15087 0.472469,0.18899 0.0945,0.0315 0.185232,0.0781 0.283482,0.0945 0.09321,0.0155 0.188989,0 0.283483,0 0.09449,0 0.188989,0 0.283482,0 0.125992,0 0.252958,0.0156 0.377976,0 0.128868,-0.0161 0.251984,-0.063 0.377976,-0.0945 0.125992,-0.0315 0.256376,-0.0489 0.377976,-0.0945 0.131894,-0.0495 0.246083,-0.13952 0.377978,-0.18898 0.1216,-0.0456 0.261816,-0.0364 0.377976,-0.0945 0.140861,-0.0704 0.24982,-0.19194 0.377976,-0.28348 0.09241,-0.066 0.196236,-0.11628 0.283482,-0.18899 0.102661,-0.0856 0.180822,-0.19793 0.283483,-0.28348 0.08724,-0.0727 0.196236,-0.11628 0.28348,-0.18899 0.272841,-0.22736 0.286647,-0.28822 0.472471,-0.56696 0.02726,-0.0409 0.262726,-0.3687 0.283483,-0.47247 0.01852,-0.0927 0,-0.18899 0,-0.28348 0,-0.18899 0,-0.37798 0,-0.56697 0,-0.0315 0.02228,-0.0722 0,-0.0945 -0.02228,-0.0223 -0.063,0 -0.0945,0 -0.0315,0 -0.063,0 -0.09449,0 -0.09827,0 -0.492633,-0.0186 -0.566965,0 -0.215197,0.0538 -0.206828,0.14656 -0.377976,0.28348 -0.08868,0.0709 -0.1948,0.11804 -0.283483,0.18899 -0.253508,0.2028 -0.159692,0.19961 -0.377975,0.47247 -0.05565,0.0696 -0.143151,0.11259 -0.188987,0.18899 -0.05125,0.0854 -0.063,0.18898 -0.0945,0.28348 -0.0315,0.0945 -0.07812,0.18523 -0.09449,0.28348 -0.01553,0.0932 0,0.18899 0,0.28348 0,0.0945 0,0.18899 0,0.28348 0,0.0945 -0.02988,0.19384 0,0.28349 0.09,0.26998 0.256484,0.32848 0.472471,0.47247 0.09449,0.063 0.181904,0.1382 0.28348,0.18898 0.08909,0.0445 0.18899,0.063 0.283483,0.0945 0.0945,0.0315 0.188989,0.063 0.283482,0.0945 0.09449,0.0315 0.185233,0.0781 0.283483,0.0945 0.09321,0.0155 0.188989,0 0.283482,0 0.125992,0 0.251984,0 0.377976,0 0.09449,0 0.188989,0 0.283483,0 0.09449,0 0.189936,0.0134 0.283482,0 0.128564,-0.0184 0.249412,-0.0761 0.377976,-0.0945 0.09354,-0.0134 0.193836,0.0299 0.283483,0 0.107738,-0.0359 0.181903,-0.1382 0.283482,-0.18899 0.08909,-0.0445 0.19807,-0.0432 0.28348,-0.0945 0.0764,-0.0458 0.125992,-0.12599 0.188989,-0.18899 0.063,-0.063 0.125992,-0.12599 0.188989,-0.18899 0.063,-0.063 0.143151,-0.11259 0.188987,-0.18898 0.05048,-0.0841 0.181266,-0.60741 0.188989,-0.66146 0.01336,-0.0935 0,-0.18899 0,-0.28348 0,-0.0945 0,-0.18899 0,-0.28349 0,-0.2277 0.04034,-0.36471 -0.0945,-0.56696 -0.02471,-0.0371 -0.05465,-0.0746 -0.09449,-0.0945 -0.02817,-0.0141 -0.06632,-0.0141 -0.09449,0 -0.182822,0.0914 -0.06876,0.31802 -0.09449,0.47247 -0.02135,0.1281 -0.07839,0.24911 -0.0945,0.37797 -0.01564,0.12502 0,0.25199 0,0.37798 0,0.18899 0,0.37797 0,0.56696 0,0.15749 -0.01426,0.31563 0,0.47247 0.01736,0.19081 0.06022,0.37846 0.0945,0.56697 0.05746,0.31603 0.119306,0.63137 0.188987,0.94494 0.02817,0.12677 0.07838,0.24911 0.09449,0.37797 0.01564,0.12502 -0.01781,0.25326 0,0.37798 0.01408,0.0986 0.07812,0.18523 0.0945,0.28348 0.02133,0.128 0,0.50499 0,0.66146 0,0.0222 0.0352,0.31869 -0.0945,0.18899 -0.146317,-0.14632 -0.09449,-0.48044 -0.09449,-0.66146 0,-0.44097 0,-0.88194 0,-1.32292 0,-0.15749 0.01426,-0.31562 0,-0.47247 -0.01736,-0.19081 -0.07715,-0.37615 -0.09449,-0.56696 -0.01426,-0.15684 0,-0.31498 0,-0.47247 -0.0315,-0.18899 -0.07543,-0.37632 -0.09449,-0.56697 -0.01254,-0.12536 0.01781,-0.25325 0,-0.37797 -0.01407,-0.0986 -0.07812,-0.18523 -0.0945,-0.28348 -0.0046,-0.0276 -0.01352,-0.60741 0,-0.66146 0.03634,-0.14536 0.263708,-0.39629 0.377976,-0.47247 0.02622,-0.0175 0.06461,0.01 0.0945,0 0.367999,-0.12267 0.0088,-0.0945 0.377976,-0.0945 0.0159,0 0.642631,-0.009 0.661458,0 0.07968,0.0399 0.117716,0.13554 0.188987,0.18899 0.05635,0.0423 0.139187,0.0447 0.188989,0.0945 0.0498,0.0498 0.063,0.12599 0.09449,0.18898 0.139039,0.27808 0.07222,0.12217 0.18899,0.47247 0.0315,0.0945 0.08041,0.18488 0.09449,0.28349 0.01781,0.12472 0,0.25198 0,0.37797 0,0.0945 0,0.18899 0,0.28348 0,0.1819 0.0523,0.42018 -0.09449,0.56697 -0.0498,0.0498 -0.132644,0.0522 -0.18899,0.0945 -0.07127,0.0535 -0.117715,0.13554 -0.188986,0.18899 -0.145971,0.10948 -0.40961,0.17858 -0.566965,0.28348 -0.1729,0.11527 -0.0094,0.12048 -0.283483,0.18899 -0.09788,0.0245 -0.269623,0 -0.377975,0 -0.03735,0 -0.432113,0.0202 -0.47247,0 -0.03984,-0.0199 -0.07457,-0.0546 -0.0945,-0.0945 -0.01407,-0.0282 0,-0.063 0,-0.0945 0,-0.0315 0,-0.063 0,-0.0945 0,-0.2707 -0.03081,-0.22187 0.0945,-0.47247 0.02315,-0.0463 0.10241,-0.25462 0.188987,-0.28348 0.05976,-0.0199 0.125992,0 0.188989,0"
         style="fill:none;stroke:#ffffff;stroke-width:0.26458332;stroke-linecap:round;stroke-linejoin:miter;stroke-miterlimit:4;stroke-dasharray:none;stroke-opacity:1;paint-order:normal" />
      <path
         inkscape:connector-curvature="0"
         id="path1088"
         d="m 40.443451,263.73808 c 0.157491,0.0315 0.314981,0.063 0.472472,0.0945 0.09449,0 0.189717,-0.0117 0.283482,0 0.159367,0.0199 0.312658,0.0785 0.472469,0.0945 0.156708,0.0157 0.314982,0 0.47247,0 0.283482,0 0.566965,0 0.850447,0 0.220485,0 0.442674,0.0274 0.661458,0 0.128868,-0.0161 0.249413,-0.0761 0.377976,-0.0945 0.09354,-0.0134 0.190275,0.0155 0.283483,0 0.196501,-0.0328 0.370464,-0.15624 0.566965,-0.18899 0.09321,-0.0155 0.190823,0.0185 0.283482,0 0.542902,-0.10858 -0.02712,-0.0945 0.28348,-0.0945 0.0315,0 0.0945,-0.0315 0.0945,0 0,0.0315 -0.063,0 -0.0945,0 -0.09449,0 -0.188986,0 -0.28348,0"
         style="fill:none;stroke:#ffffff;stroke-width:0.26458332;stroke-linecap:round;stroke-linejoin:miter;stroke-miterlimit:4;stroke-dasharray:none;stroke-opacity:1;paint-order:normal" />
      <path
         inkscape:connector-curvature="0"
         id="path1090"
         d="m 42.805802,264.11606 c -0.0444,0.22203 -0.134866,0.51372 -0.09449,0.75595 0.03275,0.1965 0.13426,0.37542 0.188989,0.56696 0.03568,0.12488 0.06299,0.25199 0.09449,0.37798 0.306779,1.22711 -0.04329,-0.30303 0.09449,0.66146 0.01836,0.12856 0.063,0.25198 0.0945,0.37798 0.0315,0.12599 0.05882,0.2531 0.09449,0.37797 0.02736,0.0958 0.08041,0.18488 0.09449,0.28348 0.01781,0.12473 -0.01781,0.25325 0,0.37798 0.01408,0.0986 0.07812,0.18523 0.09449,0.28348 0.01553,0.0932 -0.01553,0.19028 0,0.28348 0.01638,0.0983 0.07496,0.18581 0.0945,0.28349 0.01236,0.0618 0,0.12599 0,0.18898 0,0.126 0,0.25199 0,0.37798 0,0.15749 0,0.31498 0,0.47247 0,0.0315 0,0.063 0,0.0945 0,0.0315 0.01408,0.0663 0,0.0945 -0.01992,0.0398 -0.07457,0.0546 -0.0945,0.0945 -0.01873,0.0375 0.01931,0.26417 0,0.28348 -0.02228,0.0223 -0.09449,0.0315 -0.09449,0 0,-0.0315 0.09449,0.0315 0.09449,0 0,-0.0445 -0.07457,-0.0547 -0.09449,-0.0945 -0.01437,-0.0288 0,-0.24093 0,-0.28348"
         style="fill:none;stroke:#ffffff;stroke-width:0.26458332;stroke-linecap:round;stroke-linejoin:miter;stroke-miterlimit:4;stroke-dasharray:none;stroke-opacity:1;paint-order:normal" />
      <path
         inkscape:connector-curvature="0"
         id="path1092"
         d="m 46.680059,267.23436 c -0.38939,0.77878 -0.0829,0.0249 -0.188987,0.66146 -0.124378,0.74625 -0.0945,-0.1701 -0.0945,0.56696 0,0.15749 0,0.31498 0,0.47247 0,0.0945 0,0.18899 0,0.28349 0,0.0315 -0.0099,0.0646 0,0.0945 0.02228,0.0668 0.063,0.12599 0.0945,0.18899 0.0315,0.063 0.05542,0.13038 0.09449,0.18899 0.02471,0.0371 0.063,0.063 0.09449,0.0945 0.0315,0.0315 0.05465,0.0746 0.09449,0.0945 0.02817,0.0141 0.06632,-0.0141 0.0945,0 0.03984,0.0199 0.05223,0.0804 0.09449,0.0945 0.05976,0.0199 0.125992,0 0.188989,0 0.04941,0 0.353129,0.0124 0.377976,0 0.03984,-0.0199 0.05743,-0.0698 0.09449,-0.0945 0.0586,-0.0391 0.139184,-0.0447 0.18899,-0.0945 0.0498,-0.0498 0.06299,-0.12599 0.09449,-0.18899 0.063,-0.12599 0.136673,-0.24719 0.188986,-0.37797 0.03699,-0.0925 0.04995,-0.1944 0.0945,-0.28349 0.063,-0.0945 0.125992,-0.18898 0.188987,-0.28348 0.063,-0.0945 0.1382,-0.1819 0.188989,-0.28348 0.451686,-0.90337 -0.270221,0.2658 0.283483,-0.47247 0.08452,-0.11269 0.104468,-0.26529 0.188986,-0.37798 0.0019,-0.003 0.332433,-0.3552 0.377976,-0.37797 0.02817,-0.0141 0.06632,0.0141 0.0945,0 0.03984,-0.0199 0.05465,-0.0746 0.09449,-0.0945 0.05635,-0.0282 0.132644,0.0282 0.18899,0 0.02461,-0.0123 0.115117,-0.16836 0.188986,-0.0945 0.09329,0.0933 -0.09095,0.13997 -0.188986,0.18899 -0.287785,0.14389 -0.597308,0.26995 -0.850448,0.47247 -0.06957,0.0556 -0.125992,0.12599 -0.188989,0.18899 -0.063,0.063 -0.133334,0.11942 -0.188987,0.18898 -0.152037,0.19005 -0.185343,0.2762 -0.283482,0.47247 -0.0315,0.063 -0.07741,0.12066 -0.09449,0.18899 -0.01529,0.0611 0,0.12599 0,0.18899 0,0.063 0,0.12599 0,0.18899 0,0.063 0,0.12599 0,0.18899 0,0.063 -0.03494,0.13657 0,0.18898 0.03907,0.0586 0.130384,0.0554 0.188987,0.0945 0.03706,0.0247 0.05224,0.0804 0.0945,0.0945 0.05976,0.0199 0.125992,0 0.188987,0 0.063,0 0.125991,0 0.188989,0 0.188986,0 0.377976,0 0.566962,0 0.063,0 0.127873,0.0153 0.188989,0 0.274056,-0.0685 0.110583,-0.0737 0.283483,-0.18899 0.0586,-0.0391 0.139184,-0.0447 0.188986,-0.0945 0.04981,-0.0498 0.063,-0.12599 0.0945,-0.18899 0.0315,-0.063 0.07741,-0.12066 0.09449,-0.18899 0.01527,-0.0611 -0.01236,-0.12721 0,-0.18898 0.07783,-0.38917 0.137099,-0.21303 0.188989,-0.47247 0.01852,-0.0927 -0.01855,-0.19083 0,-0.28349 0.01381,-0.0691 0.08068,-0.11992 0.09449,-0.18898 0.02471,-0.12355 0,-0.25199 0,-0.37798 0,-0.0945 0,-0.18899 0,-0.28348 0,-0.0315 -0.0315,-0.0945 0,-0.0945 0.0315,0 0,0.063 0,0.0945 0,0.18899 0,0.37797 0,0.56696 0,0.62996 0,1.25992 0,1.88988 0,0.12599 0,0.25199 0,0.37798 0,0.15749 -0.01738,0.31594 0,0.47247 0.01434,0.12907 0.08015,0.2489 0.09449,0.37798 0.01738,0.15652 -0.01566,0.31576 0,0.47246 0.01598,0.15982 0.07676,0.31285 0.09449,0.47248 0.01392,0.12522 -0.01564,0.25295 0,0.37797 0.01611,0.12887 0.07839,0.24911 0.0945,0.37798 0.01564,0.12502 0,0.25198 0,0.37797 0,0.18899 0,0.37798 0,0.56697 0,0.0945 0,0.18899 0,0.28348 0,0.063 0.01527,0.12787 0,0.18899 -0.03417,0.13666 -0.144444,0.24434 -0.188989,0.37797 -0.0099,0.0299 0.02228,0.0722 0,0.0945 -0.02228,0.0223 -0.06461,-0.01 -0.09449,0 -0.06682,0.0223 -0.122171,0.0722 -0.188989,0.0945 -0.02988,0.01 -0.063,0 -0.09449,0 -0.063,0 -0.125992,0 -0.18899,0 -0.157487,0 -0.318037,0.0309 -0.472469,0 -0.06906,-0.0138 -0.123594,-0.0683 -0.188989,-0.0945 -0.09248,-0.037 -0.191,-0.0575 -0.28348,-0.0945 -0.06539,-0.0262 -0.123595,-0.0683 -0.188989,-0.0945 -0.09248,-0.037 -0.198072,-0.0433 -0.283482,-0.0945 -0.07639,-0.0458 -0.117716,-0.13554 -0.188987,-0.18899 -0.05635,-0.0423 -0.132644,-0.0522 -0.188989,-0.0945 -0.07127,-0.0535 -0.125992,-0.12599 -0.18899,-0.18898 -0.06299,-0.063 -0.125991,-0.126 -0.188986,-0.18899 -0.0315,-0.0315 -0.06979,-0.0574 -0.09449,-0.0945 -0.07814,-0.11721 -0.125992,-0.25199 -0.18899,-0.37798 -0.0315,-0.063 -0.07741,-0.12066 -0.09449,-0.18899 -0.02447,-0.0979 0,-0.26962 0,-0.37798 0,-0.0315 0,-0.063 0,-0.0945 0,-0.0315 -0.01408,-0.0663 0,-0.0945 0.06597,-0.13194 0.273505,-0.15417 0.377976,-0.18899 0.09449,-0.0315 0.188986,-0.063 0.283482,-0.0945"
         style="fill:none;stroke:#ffffff;stroke-width:0.26458332;stroke-linecap:round;stroke-linejoin:miter;stroke-miterlimit:4;stroke-dasharray:none;stroke-opacity:1;paint-order:normal" />
      <path
         inkscape:connector-curvature="0"
         id="path1094"
         d="m 51.782739,264.87201 c -0.125992,0 -0.297321,-0.0968 -0.377979,0 -0.122655,0.14719 -0.05692,0.37909 -0.09449,0.56696 -0.05094,0.2547 -0.160303,0.49781 -0.188987,0.75596 -0.01738,0.15652 0,0.31498 0,0.47247 0,0.28348 0,0.56696 0,0.85044 0,0.25199 0,0.50397 0,0.75596 0,0.12599 0,0.25198 0,0.37797 0,0.0945 -0.01855,0.19083 0,0.28348 0.01381,0.0691 0.07741,0.12066 0.09449,0.18899 0.0043,0.0171 -0.0059,0.46659 0,0.47247 0.02228,0.0223 0.07222,0.0223 0.09449,0 0.02228,-0.0223 -0.01408,-0.0663 0,-0.0945 0.01992,-0.0398 0.063,-0.063 0.09449,-0.0945 0.063,-0.12599 0.130699,-0.24973 0.188989,-0.37797 0.09926,-0.21838 0.176205,-0.4469 0.283483,-0.66146 0.05079,-0.10158 0.144251,-0.1791 0.188986,-0.28348 0.05116,-0.11937 0.04334,-0.25861 0.0945,-0.37798 0.04474,-0.10438 0.130556,-0.1861 0.188987,-0.28348 0.2477,-0.41283 -0.08145,0.0684 0.188989,-0.47247 0.05669,-0.11339 0.226785,-0.17009 0.283483,-0.28348 0.01408,-0.0282 -0.02228,-0.0722 0,-0.0945 0.02228,-0.0223 0.08041,-0.0282 0.09449,0 0.02817,0.0564 0,0.12599 0,0.18899 0,0.37798 0,0.75595 0,1.13393 0,0.12599 -0.01781,0.25325 0,0.37798 0.01408,0.0986 0.06713,0.1877 0.09449,0.28348 0.0896,0.3136 0.07571,0.37825 0.18899,0.66146 0.09818,0.24546 0.289909,0.3844 0.472469,0.56696 0.0315,0.0315 0.05224,0.0804 0.0945,0.0945 0.05976,0.0199 0.125991,0 0.188986,0 0.063,0 0.125992,0 0.188989,0 0.05274,0 0.429213,0.0144 0.472469,0 0.04226,-0.0141 0.05743,-0.0698 0.09449,-0.0945 0.440973,-0.29398 -0.0315,0.13649 0.283482,-0.28348 0.05345,-0.0713 0.143153,-0.1126 0.188989,-0.18899 0.04955,-0.0826 0.182486,-0.60943 0.188987,-0.66146 0.01564,-0.12502 -0.01392,-0.25275 0,-0.37797 0.01773,-0.15963 0.07676,-0.31285 0.0945,-0.47247 0.03111,-0.28003 -0.03111,-0.57043 0,-0.85045 0.01434,-0.12908 0.07838,-0.24911 0.09449,-0.37798 0.01564,-0.12502 0,-0.25198 0,-0.37797 0,-0.22049 0,-0.44098 0,-0.66146 0,-0.12599 0,-0.25199 0,-0.37798 0,-0.0315 0.0315,-0.0945 0,-0.0945 -0.143388,0 -0.07567,0.13251 -0.09449,0.18899 -0.09123,0.27369 -0.139832,0.12836 -0.188989,0.47247 -0.01781,0.12472 0.01564,0.25295 0,0.37797 -0.03222,0.25774 -0.160303,0.4978 -0.188987,0.75596 -0.01738,0.15652 0.01738,0.31594 0,0.47247 -0.01434,0.12907 -0.08015,0.2489 -0.0945,0.37797 -0.01738,0.15653 0,0.31498 0,0.47247 0,0.15749 0,0.31498 0,0.47247 0,0.12599 -0.01781,0.25325 0,0.37798 0.01408,0.0986 0.06713,0.18771 0.0945,0.28348 0.308028,1.07811 -0.07013,-0.0808 0.188987,0.56696 0.03699,0.0925 0.03924,0.20061 0.09449,0.28349 0.07413,0.11119 0.188989,0.18898 0.283483,0.28348 0.0315,0.0315 0.05743,0.0698 0.0945,0.0945 0.102817,0.0686 0.370022,0.17192 0.472469,0.18899 0.09321,0.0155 0.188989,0 0.283482,0 0.0315,0 0.06461,0.01 0.09449,0 0.06682,-0.0223 0.120661,-0.0774 0.18899,-0.0945 0.06111,-0.0153 0.129225,0.0199 0.188986,0 0.04226,-0.0141 0.05743,-0.0698 0.0945,-0.0945 0.377976,-0.25198 0.0315,0.0945 0.28348,-0.28348 0.02471,-0.0371 0.08041,-0.0522 0.0945,-0.0945 0.01442,-0.0433 0,-0.41973 0,-0.47247 0,-0.0315 0.02228,-0.0722 0,-0.0945 -0.02228,-0.0223 -0.063,0 -0.0945,0"
         style="fill:none;stroke:#ffffff;stroke-width:0.26458332;stroke-linecap:round;stroke-linejoin:miter;stroke-miterlimit:4;stroke-dasharray:none;stroke-opacity:1;paint-order:normal" />
      <path
         inkscape:connector-curvature="0"
         id="path1096"
         d="m 54.334076,267.61234 c 0.125992,0 0.251984,0 0.377976,0 0.50397,0 1.007938,0 1.511906,0 0.125992,0 0.251983,0 0.377975,0 0.0315,0 0.09449,-0.0315 0.09449,0 0,0.0315 -0.06461,-0.01 -0.09449,0 -0.171622,0.0572 -0.175365,0.0809 -0.283482,0.18899"
         style="fill:none;stroke:#ffffff;stroke-width:0.26458332;stroke-linecap:round;stroke-linejoin:miter;stroke-miterlimit:4;stroke-dasharray:none;stroke-opacity:1;paint-order:normal" />
      <path
         inkscape:connector-curvature="0"
         id="path1098"
         d="m 47.15253,264.9665 c -0.125992,-0.0315 -0.248107,-0.0945 -0.377978,-0.0945 -0.04454,0 -0.063,0.063 -0.09449,0.0945 -0.137187,0.13719 -0.09449,0.1023 -0.09449,0.28349 0,0.0315 -0.01408,0.0663 0,0.0945 0.01992,0.0398 0.05223,0.0804 0.09449,0.0945 0.04326,0.0144 0.419727,0 0.472471,0 0.0315,0 0.063,0 0.09449,0 0.0315,0 0.07222,0.0223 0.09449,0 0.02228,-0.0223 0.01169,-0.0652 0,-0.0945 -0.05232,-0.13079 -0.0571,-0.32852 -0.188987,-0.37798 -0.05509,-0.0206 -0.56071,-0.0125 -0.661458,0.18899 -0.01408,0.0282 0,0.063 0,0.0945 0,0.0315 -0.01408,0.0663 0,0.0945 0.01992,0.0398 0.05465,0.0746 0.09449,0.0945 0.02484,0.0124 0.328562,0 0.377976,0 0.0315,0 0.063,0 0.09449,0 0.0315,0 0.07222,0.0223 0.0945,0 0.02228,-0.0223 -0.02228,-0.0722 0,-0.0945 0.04601,-0.046 0.837515,0.22025 0,-0.37798 -0.155908,-0.11136 -0.375369,-0.0945 -0.566965,-0.0945 -0.114419,0 -0.113276,0.2647 -0.09449,0.28348 0.003,0.003 0.260564,0 0.28348,0"
         style="fill:none;stroke:#ffffff;stroke-width:0.26458332;stroke-linecap:round;stroke-linejoin:miter;stroke-miterlimit:4;stroke-dasharray:none;stroke-opacity:1;paint-order:normal" />
      <path
         inkscape:connector-curvature="0"
         id="path1108"
         d="m 49.999447,266.97226 0.420949,0.0468"
         style="fill:none;stroke:#ffffff;stroke-width:0.26458332px;stroke-linecap:round;stroke-linejoin:miter;stroke-opacity:1;paint-order:normal" />
    </g>
    <path
       sodipodi:type="star"
       style="opacity:1;fill:#ffff00;fill-opacity:1;stroke:#ffff00;stroke-width:0.26458332;stroke-linecap:round;stroke-miterlimit:4;stroke-dasharray:none;stroke-opacity:1;paint-order:normal"
       id="path1179"
       sodipodi:sides="5"
       sodipodi:cx="64.847018"
       sodipodi:cy="256.25397"
       sodipodi:r1="1.5875"
       sodipodi:r2="3.96875"
       sodipodi:arg1="0.92729522"
       sodipodi:arg2="1.5556137"
       inkscape:flatsided="false"
       inkscape:rounded="0"
       inkscape:randomized="0"
       d="m 65.799515,257.52397 -0.892246,2.69829 -0.973757,-2.66996 -2.841948,-0.0148 2.238375,-1.75116 -0.864174,-2.70741 2.357149,1.58768 2.307859,-1.65852 -0.781577,2.73241 2.290509,1.68239 z"
       inkscape:transform-center-x="0.018620319"
       inkscape:transform-center-y="-0.36123026" />
    <path
       sodipodi:type="star"
       style="opacity:1;fill:#ffff00;fill-opacity:1;stroke:#ffff00;stroke-width:0.26458332;stroke-linecap:round;stroke-miterlimit:4;stroke-dasharray:none;stroke-opacity:1;paint-order:normal"
       id="path1179-7"
       sodipodi:sides="5"
       sodipodi:cx="7.9615993"
       sodipodi:cy="253.60813"
       sodipodi:r1="1.5875"
       sodipodi:r2="3.96875"
       sodipodi:arg1="0.92729522"
       sodipodi:arg2="1.5556137"
       inkscape:flatsided="false"
       inkscape:rounded="0"
       inkscape:randomized="0"
       d="m 8.9140993,254.87812 -0.8922462,2.6983 -0.9737568,-2.66996 -2.841948,-0.0148 2.2383751,-1.75116 -0.8641742,-2.70742 2.3571487,1.58769 2.3078591,-1.65852 -0.7815772,2.7324 2.2905092,1.6824 z"
       inkscape:transform-center-x="0.018620319"
       inkscape:transform-center-y="-0.36123026" />
    <path
       sodipodi:type="star"
       style="opacity:1;fill:#ffff00;fill-opacity:1;stroke:#ffff00;stroke-width:0.26458332;stroke-linecap:round;stroke-miterlimit:4;stroke-dasharray:none;stroke-opacity:1;paint-order:normal"
       id="path1179-77"
       sodipodi:sides="5"
       sodipodi:cx="26.482433"
       sodipodi:cy="286.68105"
       sodipodi:r1="1.5875"
       sodipodi:r2="3.96875"
       sodipodi:arg1="0.92729522"
       sodipodi:arg2="1.5556137"
       inkscape:flatsided="false"
       inkscape:rounded="0"
       inkscape:randomized="0"
       d="m 27.434933,287.95106 -0.892246,2.69829 -0.973757,-2.66996 -2.841948,-0.0148 2.238375,-1.75117 -0.864174,-2.70741 2.357149,1.58768 2.307859,-1.65851 -0.781577,2.7324 2.290509,1.6824 z"
       inkscape:transform-center-x="0.018620319"
       inkscape:transform-center-y="-0.36123026" />
    <path
       sodipodi:type="star"
       style="opacity:1;fill:#ffff00;fill-opacity:1;stroke:#ffff00;stroke-width:0.26458332;stroke-linecap:round;stroke-miterlimit:4;stroke-dasharray:none;stroke-opacity:1;paint-order:normal"
       id="path1179-6"
       sodipodi:sides="5"
       sodipodi:cx="76.753266"
       sodipodi:cy="289.32688"
       sodipodi:r1="1.5875"
       sodipodi:r2="3.96875"
       sodipodi:arg1="0.92729522"
       sodipodi:arg2="1.5556137"
       inkscape:flatsided="false"
       inkscape:rounded="0"
       inkscape:randomized="0"
       d="m 77.705765,290.59687 -0.892246,2.6983 -0.973757,-2.66996 -2.841948,-0.0148 2.238375,-1.75116 -0.864174,-2.70742 2.357149,1.58769 2.307859,-1.65852 -0.781577,2.7324 2.290509,1.6824 z"
       inkscape:transform-center-x="0.018620319"
       inkscape:transform-center-y="-0.36123026" />
  </g>
</svg>
